<?xml version="1.0" encoding="iso-8859-1"?>
<!-- Generator: Adobe Illustrator 16.0.0, SVG Export Plug-In . SVG Version: 6.00 Build 0)  -->
<!DOCTYPE svg PUBLIC "-//W3C//DTD SVG 1.1//EN" "http://www.w3.org/Graphics/SVG/1.1/DTD/svg11.dtd">
<svg version="1.1" id="Capa_1" xmlns="http://www.w3.org/2000/svg" xmlns:xlink="http://www.w3.org/1999/xlink" x="0px" y="0px"
	 width="471.829px" height="471.829px" viewBox="0 0 471.829 471.829" style="enable-background:new 0 0 471.829 471.829;"
	 xml:space="preserve">
<g>
	<path d="M319.089,27.221h-36.475V0h-95.28v27.221h-34.597c-22.522,0-40.829,18.317-40.829,40.832v362.946
		c0,22.51,18.312,40.83,40.829,40.83h166.352c22.524,0,40.832-18.32,40.832-40.83V68.052
		C359.921,45.538,341.613,27.221,319.089,27.221z M332.705,431.002c0,7.501-6.108,13.607-13.62,13.607H152.737
		c-7.508,0-13.615-6.095-13.615-13.607V68.052c0-7.501,6.107-13.611,13.615-13.611h166.352c7.508,0,13.616,6.109,13.616,13.611
		V431.002L332.705,431.002z M317.862,428.5H153.966v-59.719h163.896V428.5z"/>
</g>
<g>
</g>
<g>
</g>
<g>
</g>
<g>
</g>
<g>
</g>
<g>
</g>
<g>
</g>
<g>
</g>
<g>
</g>
<g>
</g>
<g>
</g>
<g>
</g>
<g>
</g>
<g>
</g>
<g>
</g>
</svg>
