<?xml version="1.0" encoding="iso-8859-1"?>
<!-- Generator: Adobe Illustrator 16.0.0, SVG Export Plug-In . SVG Version: 6.00 Build 0)  -->
<!DOCTYPE svg PUBLIC "-//W3C//DTD SVG 1.1//EN" "http://www.w3.org/Graphics/SVG/1.1/DTD/svg11.dtd">
<svg version="1.1" id="Capa_1" xmlns="http://www.w3.org/2000/svg" xmlns:xlink="http://www.w3.org/1999/xlink" x="0px" y="0px"
	 width="471.829px" height="471.829px" viewBox="0 0 471.829 471.829" style="enable-background:new 0 0 471.829 471.829;"
	 xml:space="preserve">
<g>
	<path d="M264.161,313.448h37.625l-79.061,65.449l-54.565-65.449h37.922l21.978-64.429h-46.515l46.284-128.868h52.633
		l-30.178,87.117h49.236L264.161,313.448z M359.921,68.052v362.946c0,22.51-18.308,40.83-40.832,40.83H152.737
		c-22.522,0-40.829-18.32-40.829-40.83V68.052c0-22.514,18.312-40.832,40.829-40.832h34.607V0h95.27v27.221h36.475
		C341.613,27.221,359.921,45.538,359.921,68.052z M332.705,68.052c0-7.501-6.108-13.611-13.62-13.611H152.737
		c-7.508,0-13.615,6.109-13.615,13.611v362.946c0,7.499,6.107,13.611,13.615,13.611h166.352c7.508,0,13.616-6.106,13.616-13.611
		V68.052L332.705,68.052z"/>
</g>
<g>
</g>
<g>
</g>
<g>
</g>
<g>
</g>
<g>
</g>
<g>
</g>
<g>
</g>
<g>
</g>
<g>
</g>
<g>
</g>
<g>
</g>
<g>
</g>
<g>
</g>
<g>
</g>
<g>
</g>
</svg>
