<?xml version="1.0" encoding="iso-8859-1"?>
<!-- Generator: Adobe Illustrator 17.1.0, SVG Export Plug-In . SVG Version: 6.00 Build 0)  -->
<!DOCTYPE svg PUBLIC "-//W3C//DTD SVG 1.1//EN" "http://www.w3.org/Graphics/SVG/1.1/DTD/svg11.dtd">
<svg version="1.1" id="Capa_1" xmlns="http://www.w3.org/2000/svg" xmlns:xlink="http://www.w3.org/1999/xlink" x="0px" y="0px"
	 viewBox="0 0 183.529 183.529" style="enable-background:new 0 0 183.529 183.529;" xml:space="preserve">
<path d="M100.607,180.365H82.923c-1.104,0-2-0.896-2-2v-29.211H49.06c-0.029,0.001-0.061,0.001-0.092,0H2
	c-0.806,0-1.533-0.484-1.845-1.228c-0.312-0.743-0.146-1.601,0.42-2.175l36.758-37.34c0.012-0.013,0.024-0.025,0.036-0.037
	l11.913-12.101c0.375-0.382,0.889-0.597,1.425-0.597h19.264c0.029-0.001,0.061-0.001,0.09,0h43.408c0.029-0.001,0.061-0.001,0.09,0
	h19.264c0.536,0,1.05,0.215,1.426,0.597l11.903,12.093c0.019,0.017,0.036,0.035,0.053,0.053l36.749,37.332
	c0.566,0.574,0.731,1.432,0.42,2.175c-0.312,0.744-1.039,1.228-1.845,1.228h-46.967c-0.031,0.001-0.063,0.001-0.092,0h-31.863
	v29.211C102.607,179.47,101.711,180.365,100.607,180.365z M84.923,176.365h13.684v-27.189H84.923V176.365z M135.839,145.154h40.914
	l-15.975-16.228h-31.827L135.839,145.154z M93.765,145.154h37.729l-6.888-16.228H93.765V145.154z M52.036,145.154h37.729v-16.228
	H58.924L52.036,145.154z M6.776,145.154h40.915l6.888-16.228H22.75L6.776,145.154z M127.253,124.926h29.588l-12.926-13.131H121.68
	L127.253,124.926z M93.765,124.926h29.144l-5.573-13.131h-23.57V124.926z M60.621,124.926h29.144v-13.131h-23.57L60.621,124.926z
	 M26.688,124.926h29.589l5.573-13.131H39.614L26.688,124.926z M119.983,107.796h19.995l-7.993-8.119h-15.448L119.983,107.796z
	 M93.765,107.796h21.872l-3.446-8.119H93.765V107.796z M67.893,107.796h21.872v-8.119H71.339L67.893,107.796z M43.552,107.796
	h19.995l3.446-8.119H51.545L43.552,107.796z M91.765,77.83c-1.104,0-2-0.896-2-2V65.496c0-1.104,0.896-2,2-2s2,0.896,2,2V75.83
	C93.765,76.934,92.869,77.83,91.765,77.83z M116.749,67.481c-0.512,0-1.023-0.195-1.414-0.586l-7.307-7.307
	c-0.781-0.781-0.781-2.047,0-2.828c0.781-0.781,2.047-0.781,2.828,0l7.307,7.307c0.781,0.781,0.781,2.047,0,2.828
	C117.773,67.285,117.261,67.481,116.749,67.481z M66.78,67.481c-0.512,0-1.023-0.195-1.414-0.586c-0.781-0.781-0.781-2.047,0-2.828
	l7.307-7.307c0.781-0.781,2.047-0.781,2.828,0c0.781,0.781,0.781,2.047,0,2.828l-7.307,7.307
	C67.804,67.285,67.292,67.481,66.78,67.481z M91.765,58.997c-10.155,0-18.417-8.262-18.417-18.417
	c0-10.155,8.262-18.417,18.417-18.417s18.417,8.262,18.417,18.417C110.182,50.736,101.92,58.997,91.765,58.997z M91.765,26.164
	c-7.949,0-14.417,6.467-14.417,14.417c0,7.95,6.468,14.417,14.417,14.417s14.417-6.467,14.417-14.417
	C106.182,32.631,99.714,26.164,91.765,26.164z M127.098,42.496h-10.333c-1.104,0-2-0.896-2-2s0.896-2,2-2h10.333
	c1.104,0,2,0.896,2,2S128.202,42.496,127.098,42.496z M66.765,42.496H56.432c-1.104,0-2-0.896-2-2s0.896-2,2-2h10.333
	c1.104,0,2,0.896,2,2S67.869,42.496,66.765,42.496z M109.443,24.819c-0.512,0-1.023-0.195-1.414-0.586
	c-0.781-0.781-0.781-2.047,0-2.828l7.307-7.307c0.781-0.781,2.047-0.781,2.828,0c0.781,0.781,0.781,2.047,0,2.828l-7.307,7.307
	C110.466,24.623,109.954,24.819,109.443,24.819z M74.087,24.819c-0.512,0-1.023-0.195-1.414-0.586l-7.307-7.307
	c-0.781-0.781-0.781-2.047,0-2.828c0.781-0.781,2.047-0.781,2.828,0l7.307,7.307c0.781,0.781,0.781,2.047,0,2.828
	C75.111,24.623,74.599,24.819,74.087,24.819z M91.765,17.496c-1.104,0-2-0.896-2-2V5.163c0-1.104,0.896-2,2-2s2,0.896,2,2v10.333
	C93.765,16.601,92.869,17.496,91.765,17.496z"/>
<g>
</g>
<g>
</g>
<g>
</g>
<g>
</g>
<g>
</g>
<g>
</g>
<g>
</g>
<g>
</g>
<g>
</g>
<g>
</g>
<g>
</g>
<g>
</g>
<g>
</g>
<g>
</g>
<g>
</g>
</svg>
