<?xml version="1.0" encoding="iso-8859-1"?>
<!-- Generator: Adobe Illustrator 16.0.0, SVG Export Plug-In . SVG Version: 6.00 Build 0)  -->
<!DOCTYPE svg PUBLIC "-//W3C//DTD SVG 1.1//EN" "http://www.w3.org/Graphics/SVG/1.1/DTD/svg11.dtd">
<svg version="1.1" id="Capa_1" xmlns="http://www.w3.org/2000/svg" xmlns:xlink="http://www.w3.org/1999/xlink" x="0px" y="0px"
	 width="471.829px" height="471.829px" viewBox="0 0 471.829 471.829" style="enable-background:new 0 0 471.829 471.829;"
	 xml:space="preserve">
<g>
	<path d="M319.102,27.221h-36.485V0h-95.27v27.221h-34.607c-22.522,0-40.829,18.317-40.829,40.832v362.946
		c0,22.51,18.312,40.83,40.829,40.83h166.362c22.514,0,40.817-18.32,40.817-40.83V68.052
		C359.923,45.538,341.615,27.221,319.102,27.221z M332.707,431.002c0,7.501-6.108,13.607-13.605,13.607H152.739
		c-7.508,0-13.615-6.095-13.615-13.607V68.052c0-7.501,6.107-13.611,13.615-13.611h166.362c7.497,0,13.605,6.109,13.605,13.611
		V431.002z M317.864,428.5H153.968v-59.719h163.896V428.5z M317.864,354.071H153.968v-59.716h163.896V354.071z"/>
</g>
<g>
</g>
<g>
</g>
<g>
</g>
<g>
</g>
<g>
</g>
<g>
</g>
<g>
</g>
<g>
</g>
<g>
</g>
<g>
</g>
<g>
</g>
<g>
</g>
<g>
</g>
<g>
</g>
<g>
</g>
</svg>
