<?xml version="1.0" encoding="iso-8859-1"?>
<!-- Generator: Adobe Illustrator 18.0.0, SVG Export Plug-In . SVG Version: 6.00 Build 0)  -->
<!DOCTYPE svg PUBLIC "-//W3C//DTD SVG 1.1//EN" "http://www.w3.org/Graphics/SVG/1.1/DTD/svg11.dtd">
<svg version="1.1" id="Capa_1" xmlns="http://www.w3.org/2000/svg" xmlns:xlink="http://www.w3.org/1999/xlink" x="0px" y="0px"
	 viewBox="0 0 304.707 304.707" style="enable-background:new 0 0 304.707 304.707;" xml:space="preserve">
<g>
	<g>
		<path d="M38.5,190.854h207.627c0.407-1.026,0.883-2.037,1.474-3.013l36.437-60.148c-7.068-8.451-17.684-13.839-29.537-13.839h-216
			c-21.229,0-38.5,17.271-38.5,38.5S17.271,190.854,38.5,190.854z M237.5,139.604c7.03,0,12.75,5.72,12.75,12.75
			s-5.72,12.75-12.75,12.75c-7.031,0-12.75-5.72-12.75-12.75S230.469,139.604,237.5,139.604z M46.5,142.354h35
			c5.514,0,10,4.486,10,10s-4.486,10-10,10h-35c-5.514,0-10-4.486-10-10S40.986,142.354,46.5,142.354z"/>
		<path d="M245.285,260.201l2.081-9.784c-2.34,2.858-5.893,4.686-9.866,4.686c-7.031,0-12.75-5.72-12.75-12.75
			s5.719-12.75,12.75-12.75c5.874,0,10.818,3.998,12.291,9.412l4.987-23.443l-0.436-0.265c-4.441-2.69-7.438-6.838-8.798-11.454
			H38.5c-21.229,0-38.5,17.271-38.5,38.5s17.271,38.5,38.5,38.5h215.063C246.994,276.362,243.57,268.264,245.285,260.201z
			 M81.5,252.354h-35c-5.514,0-10-4.486-10-10s4.486-10,10-10h35c5.514,0,10,4.486,10,10S87.014,252.354,81.5,252.354z"/>
		<path d="M38.5,100.854h216c21.228,0,38.5-17.271,38.5-38.5s-17.272-38.5-38.5-38.5h-216c-21.229,0-38.5,17.271-38.5,38.5
			S17.271,100.854,38.5,100.854z M237.5,49.604c7.03,0,12.75,5.72,12.75,12.75s-5.72,12.75-12.75,12.75
			c-7.031,0-12.75-5.72-12.75-12.75S230.469,49.604,237.5,49.604z M46.5,52.354h35c5.514,0,10,4.486,10,10s-4.486,10-10,10h-35
			c-5.514,0-10-4.486-10-10S40.986,52.354,46.5,52.354z"/>
	</g>
	<polygon points="304.707,198.564 292.117,190.934 304.566,132.403 264.707,198.203 277.298,205.832 264.848,264.362 	"/>
</g>
<g>
</g>
<g>
</g>
<g>
</g>
<g>
</g>
<g>
</g>
<g>
</g>
<g>
</g>
<g>
</g>
<g>
</g>
<g>
</g>
<g>
</g>
<g>
</g>
<g>
</g>
<g>
</g>
<g>
</g>
</svg>
