<?xml version="1.0" encoding="iso-8859-1"?>
<!-- Generator: Adobe Illustrator 16.0.0, SVG Export Plug-In . SVG Version: 6.00 Build 0)  -->
<!DOCTYPE svg PUBLIC "-//W3C//DTD SVG 1.1//EN" "http://www.w3.org/Graphics/SVG/1.1/DTD/svg11.dtd">
<svg version="1.1" id="Capa_1" xmlns="http://www.w3.org/2000/svg" xmlns:xlink="http://www.w3.org/1999/xlink" x="0px" y="0px"
	 width="486.227px" height="486.226px" viewBox="0 0 486.227 486.226" style="enable-background:new 0 0 486.227 486.226;"
	 xml:space="preserve">
<g>
	<path d="M438.086,30.299L108.224,0.036c-2.574-0.225-5.066,0.618-6.948,2.338c-0.715,0.647-1.265,1.428-1.738,2.252
		c-0.086,0.065-0.18,0.109-0.266,0.175L44.295,50.183c-2.784,2.299-4.4,5.719-4.4,9.333v414.604c0,6.685,5.423,12.105,12.105,12.105
		c6.683,0,12.105-5.421,12.105-12.105V116.357l32.562,62.261c0.594,1.135,1.356,2.096,2.21,2.944
		c0.502,1.421,1.312,2.731,2.456,3.759c1.673,1.501,3.833,2.317,6.059,2.317c0.334,0,0.662-0.018,0.993-0.053l164.299-18.087
		c0.39,0.029,0.78,0.121,1.188,0.121c1.554,0,3.025-0.301,4.438-0.739l71.697-7.897c1.159,0.29,2.358,0.482,3.612,0.482
		c2.405,0,4.651-0.615,6.673-1.614l77.951-8.582c4.604-0.509,8.086-4.401,8.086-9.026v-102.9
		C446.331,34.652,442.761,30.73,438.086,30.299z M64.504,64.892l33.804-27.911v92.551L64.504,64.892z M181.564,161.267
		l-63.118,6.942c-0.115-0.266-0.189-0.543-0.328-0.81l-1.646-3.156V21.628c0.606-0.771,1.073-1.605,1.472-2.465l64.765,5.938
		c-1.513,2.355-2.412,5.145-2.412,8.148V155.22C180.291,157.375,180.751,159.408,181.564,161.267z M258.741,35.935V152.77
		l-48.472,5.337c0.184-0.934,0.29-1.894,0.29-2.881V33.249c0-2.016-0.411-3.931-1.123-5.692l49.849,4.578
		C258.96,33.355,258.741,34.608,258.741,35.935z M338.489,43.379v100.602l-49.485,5.446V35.935c0-0.375-0.088-0.721-0.112-1.085
		l50.183,4.607C338.731,40.717,338.489,42.011,338.489,43.379z M428.173,134.11l-59.421,6.54V43.379
		c0-0.411-0.088-0.804-0.124-1.218l59.545,5.468V134.11z"/>
</g>
<g>
</g>
<g>
</g>
<g>
</g>
<g>
</g>
<g>
</g>
<g>
</g>
<g>
</g>
<g>
</g>
<g>
</g>
<g>
</g>
<g>
</g>
<g>
</g>
<g>
</g>
<g>
</g>
<g>
</g>
</svg>
