<svg xmlns="http://www.w3.org/2000/svg" width="509.662" height="509.662" viewBox="0 0 509.662 509.662" fill="#FFF"><path d="M344.675 29.403h-39.4V0h-102.92v29.403h-37.37c-24.33 0-44.105 19.786-44.105 44.106v392.044c0 24.317 19.78 44.106 44.104 44.106h179.69c24.328 0 44.105-19.788 44.105-44.105V73.51c0-24.32-19.778-44.107-44.106-44.107zm14.705 436.16c0 8.103-6.596 14.7-14.712 14.7H164.985c-8.11 0-14.706-6.586-14.706-14.7V73.51c0-8.104 6.594-14.703 14.704-14.703h179.69c8.11 0 14.705 6.6 14.705 14.703v392.052z"/></svg>