<svg xmlns="http://www.w3.org/2000/svg" width="471.829" height="471.829" viewBox="0 0 471.829 471.829" fill="#FFF"><path d="M319.09 27.22h-36.483V0H187.34v27.22h-34.603c-22.517 0-40.83 18.318-40.83 40.833V431c0 22.51 18.318 40.83 40.83 40.83H319.09c22.523 0 40.83-18.32 40.83-40.83V68.05c0-22.514-18.307-40.83-40.83-40.83zm13.615 403.782c0 7.5-6.108 13.607-13.616 13.607H152.734c-7.508 0-13.615-6.098-13.615-13.61V68.052c0-7.5 6.108-13.61 13.616-13.61H319.09c7.507 0 13.615 6.108 13.615 13.61v362.95zm-14.843-2.502H153.966v-59.72h163.892v59.72h.004zm0-74.43H153.966v-59.715h163.892v59.716h.004zm0-74.43H153.966v-59.72h163.892v59.72h.004zm0-74.262H153.966v-59.72h163.892v59.72h.004zm0-74.433H153.966V71.223h163.892v59.722h.004z"/></svg>