<svg xmlns="http://www.w3.org/2000/svg" width="471.829" height="471.829" viewBox="0 0 471.829 471.829" fill="#FFF"><path d="M264.16 313.448h37.626l-79.06 65.45-54.566-65.45h37.922l21.978-64.43h-46.515L227.83 120.15h52.63l-30.177 87.12h49.236l-35.36 106.18zm95.76-245.396v362.946c0 22.51-18.307 40.83-40.83 40.83H152.736c-22.522 0-40.83-18.32-40.83-40.83V68.052c0-22.514 18.313-40.832 40.83-40.832h34.607V0h95.27v27.22h36.475c22.523 0 40.83 18.318 40.83 40.832zm-27.215 0c0-7.5-6.108-13.61-13.62-13.61H152.737c-7.508 0-13.615 6.108-13.615 13.61v362.946c0 7.5 6.107 13.61 13.615 13.61H319.09c7.507 0 13.615-6.105 13.615-13.61V68.052z"/></svg>