<svg xmlns="http://www.w3.org/2000/svg" width="471.829" height="471.829" viewBox="0 0 471.829 471.829" fill="#FFF"><path d="M319.102 27.22h-36.485V0h-95.27v27.22H152.74c-22.522 0-40.83 18.318-40.83 40.833V431c0 22.51 18.313 40.83 40.83 40.83h166.362c22.514 0 40.817-18.32 40.817-40.83V68.05c0-22.514-18.31-40.83-40.82-40.83zm13.605 403.782c0 7.5-6.108 13.607-13.605 13.607H152.74c-7.51 0-13.616-6.1-13.616-13.61V68.05c0-7.5 6.107-13.61 13.615-13.61H319.1c7.498 0 13.606 6.108 13.606 13.61V431zm-14.843-2.502H153.968v-59.72h163.896v59.72zm0-74.43H153.968v-59.715h163.896v59.716z"/></svg>