<svg xmlns="http://www.w3.org/2000/svg" width="551.391" height="551.391" viewBox="0 0 551.391 551.391" fill="#fff"><path d="M413.695 0s-45.366 44.014-94.43 61.76c-363.333 131.418-210.1 387.517-205.1 388.36 0 0 20.373-35.48 47.895-55.716 174.644-128.39 210.14-276.17 210.14-276.17S333.01 296.06 177.638 406.71c-34.316 24.426-57.552 84.568-67.388 144.68 0 0 24.325-9.83 34.785-12.49 4.08-26.62 12.607-52.107 27.025-74.876 217.15 25.856 288.272-149.12 297.563-210.134C491.553 109.79 413.695 0 413.695 0z"/></svg>