<svg xmlns="http://www.w3.org/2000/svg" width="512" height="512" viewBox="0 0 270.873 270.873"><g fill="#FFF"><path d="M51.302 60.06c-1.88 2.17-1.643 5.455.526 7.336.982.853 2.194 1.27 3.4 1.27 1.454 0 2.906-.61 3.93-1.792.807-.932 19.563-22.968 5.342-40.867-7.89-9.93-2.06-15.704-.792-16.78 2.207-1.793 2.564-5.038.787-7.27-1.79-2.244-5.06-2.61-7.307-.825-5.45 4.342-12.642 16.48-.833 31.344 8.855 11.137-4.918 27.427-5.053 27.585zM96.8 60.06c-1.878 2.17-1.642 5.455.526 7.336.982.853 2.194 1.27 3.4 1.27 1.455 0 2.907-.61 3.93-1.792.808-.932 19.563-22.968 5.342-40.867-7.89-9.93-2.06-15.704-.792-16.78 2.207-1.793 2.564-5.038.787-7.27-1.79-2.244-5.06-2.61-7.307-.825-5.45 4.342-12.642 16.48-.833 31.344 8.856 11.137-4.918 27.427-5.052 27.585zM142.3 60.06c-1.88 2.17-1.644 5.455.525 7.336.982.853 2.196 1.27 3.4 1.27 1.456 0 2.91-.61 3.93-1.792.807-.932 19.565-22.968 5.342-40.867-7.886-9.93-2.057-15.704-.792-16.78 2.21-1.793 2.564-5.038.787-7.27-1.788-2.244-5.058-2.61-7.308-.825-5.448 4.342-12.642 16.48-.833 31.344 8.858 11.137-4.916 27.427-5.05 27.585zM187.798 60.06c-1.88 2.17-1.646 5.455.528 7.336.98.853 2.193 1.27 3.397 1.27 1.457 0 2.91-.61 3.93-1.792.808-.932 19.565-22.968 5.343-40.867-7.887-9.93-2.057-15.704-.793-16.78 2.21-1.793 2.564-5.038.787-7.27-1.787-2.244-5.058-2.61-7.307-.825-5.45 4.342-12.64 16.48-.833 31.344 8.857 11.137-4.92 27.427-5.052 27.585zM39.023 270.873c8.617 0 15.6-6.982 15.6-15.6V103.38c0-8.616-6.982-15.6-15.6-15.6-8.615 0-15.6 6.983-15.6 15.6v151.894c0 8.612 6.986 15.6 15.6 15.6zM58.955 103.155V255.05c0 8.618 6.985 15.6 15.6 15.6 8.617 0 15.6-6.98 15.6-15.6V103.155c0-8.615-6.983-15.6-15.6-15.6-8.616 0-15.6 6.985-15.6 15.6zM110.09 270.426c8.617 0 15.6-6.98 15.6-15.6V102.933c0-8.615-6.982-15.6-15.6-15.6-8.615 0-15.6 6.985-15.6 15.6v151.896c0 8.61 6.985 15.598 15.6 15.598zM145.62 270.203c8.617 0 15.6-6.982 15.6-15.6V102.708c0-8.614-6.982-15.6-15.6-15.6-8.615 0-15.6 6.986-15.6 15.6v151.896c0 8.617 6.985 15.6 15.6 15.6zM181.156 269.98c8.617 0 15.6-6.983 15.6-15.6V102.484c0-8.615-6.982-15.6-15.6-15.6-8.612 0-15.6 6.985-15.6 15.6V254.38c0 8.617 6.988 15.6 15.6 15.6zM201.087 102.262v151.895c0 8.617 6.982 15.6 15.6 15.6s15.6-6.982 15.6-15.6V152.932h2.382c7.058 0 12.78-8.922 12.78-19.933 0-11.01-5.723-19.932-12.78-19.932h-2.383v-10.806c0-8.615-6.982-15.6-15.6-15.6s-15.6 6.99-15.6 15.6z"/></g></svg>