<svg xmlns="http://www.w3.org/2000/svg" viewBox="0 0 183.529 183.529" fill="#FFF"><path d="M100.607 180.365H82.923c-1.104 0-2-.896-2-2v-29.21H2c-.806 0-1.533-.485-1.845-1.23-.312-.742-.146-1.6.42-2.174l36.758-37.34.036-.03 11.91-12.1c.37-.38.89-.6 1.42-.6h82.11c.53 0 1.05.22 1.42.6l11.9 12.1c.02.02.036.04.053.05l36.75 37.33c.567.58.73 1.44.42 2.18-.31.74-1.04 1.23-1.844 1.23H102.6v29.21c0 1.108-.895 2-2 2zm-15.684-4h13.684v-27.19H84.923v27.19zm50.916-31.21h40.91l-15.98-16.23h-31.82l6.89 16.23zm-42.08 0h37.73l-6.89-16.23H93.76v16.23zm-41.73 0h37.73v-16.23H58.92l-6.89 16.23zm-45.26 0h40.92l6.89-16.23H22.75l-15.974 16.23zm120.48-20.23h29.59l-12.93-13.13h-22.23l5.57 13.13zm-33.49 0h29.14l-5.58-13.13H93.76v13.13zm-33.15 0h29.15v-13.13H66.19l-5.573 13.13zm-33.94 0h29.59l5.57-13.13H39.61l-12.927 13.13zm93.292-17.13h19.995l-7.99-8.118h-15.45l3.446 8.12zm-26.218 0h21.87l-3.446-8.118H93.76v8.12zm-25.874 0h21.88v-8.118H71.34l-3.447 8.12zm-24.34 0h20l3.446-8.118H51.54l-7.992 8.12zM91.76 77.83c-1.102 0-2-.896-2-2V65.496c0-1.104.898-2 2-2s2 .896 2 2V75.83c0 1.104-.894 2-2 2zm24.986-10.35c-.513 0-1.024-.194-1.415-.585l-7.3-7.307c-.78-.78-.78-2.047 0-2.828.78-.78 2.05-.78 2.83 0l7.31 7.307c.78.78.78 2.047 0 2.828-.39.39-.9.586-1.41.586zm-49.97 0c-.512 0-1.023-.194-1.414-.585-.78-.78-.78-2.047 0-2.828l7.307-7.307c.78-.78 2.04-.78 2.83 0 .78.78.78 2.047 0 2.828l-7.31 7.307c-.39.39-.9.586-1.42.586zm24.985-8.483c-10.15 0-18.41-8.262-18.41-18.417 0-10.155 8.26-18.417 18.42-18.417s18.42 8.262 18.42 18.417c0 10.156-8.26 18.417-18.41 18.417zm0-32.833c-7.95 0-14.41 6.467-14.41 14.417S83.82 55 91.77 55s14.414-6.467 14.414-14.417-6.467-14.416-14.416-14.416zm35.34 16.332h-10.34c-1.1 0-2-.896-2-2s.9-2 2-2h10.34c1.11 0 2 .896 2 2s-.89 2-2 2zm-60.33 0H56.43c-1.104 0-2-.896-2-2s.896-2 2-2h10.333c1.104 0 2 .896 2 2s-.896 2-2 2zm42.68-17.676c-.51 0-1.02-.197-1.41-.588-.78-.78-.78-2.047 0-2.828l7.31-7.307c.78-.78 2.05-.78 2.83 0 .78.78.78 2.047 0 2.828l-7.302 7.307c-.39.39-.905.586-1.416.586zm-35.35 0c-.51 0-1.02-.197-1.41-.588l-7.304-7.307c-.78-.78-.78-2.047 0-2.828.78-.78 2.048-.78 2.83 0l7.306 7.307c.78.78.78 2.047 0 2.828-.39.39-.9.586-1.412.586zm17.68-7.325c-1.102 0-2-.896-2-2V5.163c0-1.104.898-2 2-2s2 .896 2 2v10.333c0 1.105-.894 2-2 2z"/></svg>