<svg xmlns="http://www.w3.org/2000/svg" viewBox="0 0 304.707 304.707" fill="#FFF"><path d="M38.5 190.854h207.627c.407-1.026.883-2.037 1.474-3.013l36.44-60.145c-7.07-8.45-17.684-13.84-29.537-13.84h-216c-21.228 0-38.5 17.272-38.5 38.5s17.27 38.5 38.5 38.5zm199-51.25c7.03 0 12.75 5.72 12.75 12.75s-5.72 12.75-12.75 12.75-12.75-5.72-12.75-12.75 5.72-12.75 12.75-12.75zm-191 2.75h35c5.514 0 10 4.486 10 10s-4.486 10-10 10h-35c-5.514 0-10-4.486-10-10s4.486-10 10-10zM245.285 260.2l2.08-9.783c-2.34 2.858-5.892 4.686-9.865 4.686-7.03 0-12.75-5.72-12.75-12.75s5.72-12.75 12.75-12.75c5.874 0 10.818 3.998 12.29 9.412l4.988-23.443-.436-.265c-4.44-2.69-7.438-6.838-8.798-11.454H38.5c-21.23 0-38.5 17.27-38.5 38.5s17.27 38.5 38.5 38.5h215.063c-6.57-4.49-9.993-12.59-8.278-20.652zM81.5 252.355h-35c-5.514 0-10-4.486-10-10s4.486-10 10-10h35c5.514 0 10 4.486 10 10s-4.486 10-10 10zm-43-151.5h216c21.228 0 38.5-17.27 38.5-38.5s-17.272-38.5-38.5-38.5h-216c-21.23 0-38.5 17.27-38.5 38.5s17.27 38.5 38.5 38.5zm199-51.25c7.03 0 12.75 5.72 12.75 12.75s-5.72 12.75-12.75 12.75-12.75-5.72-12.75-12.75 5.72-12.75 12.75-12.75zm-191 2.75h35c5.514 0 10 4.485 10 10s-4.486 10-10 10h-35c-5.514 0-10-4.487-10-10s4.486-10 10-10zm258.207 146.21l-12.59-7.63 12.45-58.53-39.86 65.8 12.59 7.627-12.45 58.53"/></svg>