<svg xmlns="http://www.w3.org/2000/svg" viewBox="0 0 316.89 316.89" fill="#FFF"><path d="M182.47 212.195c0-.754.036-1.5.057-2.25H38.5c-21.23 0-38.5 17.27-38.5 38.5s17.27 38.5 38.5 38.5h199.493c-32.088-9.705-55.523-39.537-55.523-74.75zM81.5 258.445h-35c-5.514 0-10-4.486-10-10s4.486-10 10-10h35c5.514 0 10 4.486 10 10s-4.486 10-10 10zm-43-61.5h145.476c7.114-35.78 38.743-62.837 76.58-62.837 9.54 0 18.683 1.727 27.14 4.872-6.697-11.378-19.066-19.035-33.196-19.035h-216c-21.23 0-38.5 17.27-38.5 38.5s17.27 38.5 38.5 38.5zm8-48.5h35c5.514 0 10 4.486 10 10s-4.486 10-10 10h-35c-5.514 0-10-4.486-10-10s4.486-10 10-10zm-8-41.5h216c21.228 0 38.5-17.27 38.5-38.5s-17.272-38.5-38.5-38.5h-216c-21.23 0-38.5 17.27-38.5 38.5s17.27 38.5 38.5 38.5zm199-51.25c7.03 0 12.75 5.72 12.75 12.75s-5.72 12.75-12.75 12.75-12.75-5.72-12.75-12.75 5.72-12.75 12.75-12.75zm-191 2.75h35c5.514 0 10 4.486 10 10s-4.486 10-10 10h-35c-5.514 0-10-4.486-10-10s4.486-10 10-10z"/><path d="M260.557 155.862c-31.112 0-56.333 25.22-56.333 56.333s25.22 56.333 56.333 56.333 56.332-25.22 56.332-56.333-25.22-56.333-56.335-56.333zm30.096 44.4L255 235.912c-.755.756-1.76 1.173-2.83 1.173-1.068 0-2.073-.416-2.828-1.172l-17.88-17.88c-.756-.755-1.172-1.76-1.172-2.828 0-1.068.416-2.073 1.172-2.83l3.535-3.534c.754-.753 1.76-1.17 2.828-1.17 1.068 0 2.073.416 2.828 1.17l11.518 11.518 29.294-29.29c.754-.754 1.76-1.17 2.828-1.17 1.07 0 2.075.416 2.83 1.17l3.535 3.536c.755.754 1.172 1.76 1.172 2.828 0 1.07-.418 2.075-1.174 2.83z"/></svg>