<svg xmlns="http://www.w3.org/2000/svg" width="505.394" height="505.395" viewBox="0 0 505.394 505.395" fill="#FFF"><path d="M267.68 349.456l-6.47-2.092V105.862c0-5.225-4.77-9.448-10.66-9.448s-10.65 4.217-10.65 9.448v242.484l-5.925 2.482c-18.22 7.59-29.99 25.238-29.99 44.957 0 26.87 21.848 48.717 48.71 48.717 26.86 0 48.712-21.84 48.712-48.717 0-21.184-13.558-39.803-33.726-46.33z"/><path d="M307.496 300.846v-243C307.496 25.948 281.546 0 249.65 0c-31.897 0-57.846 25.948-57.846 57.846V304.63c-30.136 20.072-48.71 53.988-48.71 91.155 0 60.443 49.17 109.61 109.6 109.61 60.434 0 109.606-49.167 109.606-109.61-.006-39.85-21.314-75.67-54.804-94.94zm-54.802 174.107c-43.713 0-79.157-35.446-79.157-79.168 0-32.91 20.114-61.14 48.713-73.07V57.845c0-15.12 12.262-27.397 27.4-27.397 15.133 0 27.398 12.28 27.398 27.4v98.948h-8.375v12.188h8.375v31.21h-8.375v12.175h8.375v34.246h-8.375v12.176h8.375v61.698c31.788 10.29 54.8 40.086 54.8 75.297 0 43.716-35.434 79.168-79.154 79.168z"/></svg>