<svg xmlns="http://www.w3.org/2000/svg" width="517.079" height="517.079" viewBox="0 0 517.079 517.079" fill="#fff"><path d="M6.942 243.516h.026c0-.16-.026-.296-.016-.46.247-3.53 3.335-6.163 6.86-5.955h.1c1.815.12 36.7 1.97 53.23-13.47 5.648-5.27 8.4-11.92 8.4-20.3 0-3.55 2.874-6.42 6.42-6.42h.01c3.548 0 6.43 2.88 6.43 6.43 0 8.39 2.737 15.04 8.394 20.31 13.078 12.22 37.668 13.61 48.253 13.59 11.86-.29 32.33-2.48 43.93-13.23 5.74-5.31 8.53-12.09 8.53-20.66 0-3.55 2.88-6.42 6.43-6.42 3.54 0 6.42 2.88 6.42 6.43 0 8.39 2.74 15.03 8.39 20.31 12.17 11.38 34.32 13.35 45.87 13.58 11.95-.36 31.87-2.68 43.25-13.22 5.73-5.3 8.53-12.08 8.53-20.66 0-3.55 2.88-6.42 6.43-6.42s6.43 2.88 6.43 6.43c0 8.39 2.74 15.04 8.38 20.31 12.25 11.45 34.6 13.39 46.09 13.58 11.94-.36 31.92-2.65 43.33-13.21 5.74-5.31 8.54-12.09 8.54-20.662 0-3.556 2.88-6.43 6.42-6.43 3.56 0 6.43 2.878 6.43 6.427 0 8.39 2.74 15.035 8.39 20.31 16.89 15.76 52.96 13.5 53.32 13.47 3.53-.21 6.61 2.426 6.85 5.956.25 3.558-2.42 6.617-5.96 6.87-1.7.12-41.96 2.706-62.97-16.876-2.31-2.16-4.33-4.51-6.01-7.02-4.8 7.35-12.26 13.18-22.24 17.27-8.58 3.522-17.92 5.26-25.91 6.093-.65.28-1.34.49-2.08.53-.44.04-3.52.23-8.16.17-1.38.03-2.64.06-3.75.06-3.68 0-6.96-.01-9.31-.886-13.47-1.515-30.43-5.636-41.76-16.213-2.34-2.16-4.34-4.51-6.02-7.027-4.8 7.35-12.27 13.182-22.24 17.27-8.44 3.45-17.6 5.19-25.5 6.05-.68.32-1.417.54-2.198.58-.44.04-3.61.246-8.37.17-1.4.03-2.7.06-3.85.06-3.74 0-7.04-.03-9.39-.93-13.42-1.566-30.15-5.7-41.38-16.17-2.33-2.16-4.33-4.51-6.01-7.026-4.8 7.35-12.265 13.185-22.24 17.274-9.974 4.096-20.98 5.78-29.714 6.446-.345.096-.68.166-1.05.175-.17.01-.786.06-1.727.09-1.6.12-3.376.13-5.25.13-.34 0-.72-.01-1.09-.01-.37 0-.74.01-1.08.01-2.63 0-5.035-.01-7.066-.33-8.868-.62-20.32-2.28-30.676-6.527-9.93-4.085-17.38-9.88-22.17-17.185-4.81 7.31-12.26 13.11-22.19 17.19-14.52 5.96-31.23 6.85-39.9 6.85-1.872 0-3.65-.01-5.24-.13-.94-.03-1.55-.076-1.73-.09-1.07-.07-2.05-.42-2.92-.976-1.57-.756-2.6-2.055-2.9-4.17-.06-.32-.1-.62-.12-.95.026-.11 0-.185 0-.31zm496.342 63.64c-.358.03-36.434 2.3-53.327-13.453-5.647-5.28-8.395-11.92-8.395-20.323 0-3.558-2.872-6.425-6.43-6.425-3.543 0-6.424 2.867-6.424 6.425 0 8.59-2.796 15.356-8.536 20.667-11.415 10.578-31.403 12.86-43.344 13.227-11.485-.202-33.822-2.145-46.08-13.582-5.652-5.272-8.394-11.917-8.394-20.322 0-3.547-2.882-6.42-6.425-6.42-3.56 0-6.44 2.873-6.44 6.42 0 8.59-2.79 15.354-8.53 20.673-11.39 10.545-31.3 12.843-43.25 13.21-11.56-.208-33.7-2.206-45.88-13.56-5.65-5.28-8.4-11.918-8.4-20.323 0-3.557-2.89-6.425-6.43-6.425-3.55 0-6.43 2.868-6.43 6.425 0 8.585-2.79 15.35-8.53 20.667-11.59 10.742-32.08 12.93-43.93 13.237-10.59 0-35.18-1.368-48.26-13.593-5.66-5.27-8.39-11.91-8.39-20.32 0-3.55-2.89-6.42-6.43-6.42h-.01c-3.56 0-6.42 2.87-6.42 6.42 0 8.41-2.75 15.05-8.4 20.33-16.53 15.42-51.42 13.58-53.23 13.47-.01 0-.04-.01-.04-.01h-.06c-3.53-.19-6.61 2.43-6.86 5.98-.01.14.01.3.01.44H0c0 .12.033.21.033.33.016.31.055.61.118.93.31 2.11 1.33 3.42 2.9 4.19.87.54 1.85.91 2.93.98.18.02.8.05 1.74.1 1.59.12 3.37.12 5.25.12 8.67 0 25.38-.89 39.9-6.85 9.93-4.07 17.38-9.87 22.18-17.18 4.79 7.31 12.25 13.13 22.17 17.19 10.36 4.24 21.81 5.92 30.68 6.52 2.02.32 4.44.33 7.06.33h2.17c1.88 0 3.64 0 5.25-.12.94-.04 1.55-.08 1.73-.09.37-.03.71-.1 1.05-.17 8.73-.67 19.74-2.37 29.72-6.47 9.97-4.09 17.43-9.93 22.24-17.28 1.68 2.53 3.68 4.86 6.01 7.04 11.24 10.48 27.97 14.6 41.38 16.15 2.34.92 5.65.93 9.39.93 1.14 0 2.45-.01 3.85-.06 4.77.07 7.93-.12 8.37-.15.79-.06 1.52-.27 2.19-.58 7.9-.85 17.07-2.59 25.5-6.06 9.97-4.09 17.43-9.92 22.24-17.27 1.69 2.53 3.69 4.86 6.02 7.04 11.35 10.57 28.29 14.67 41.77 16.19 2.35.88 5.62.89 9.29.89 1.13 0 2.39-.01 3.76-.06 4.65.07 7.72-.122 8.15-.15.75-.06 1.44-.25 2.08-.52 8.01-.85 17.34-2.59 25.92-6.11 9.97-4.09 17.43-9.92 22.24-17.27 1.68 2.53 3.68 4.86 6 7.04 21.018 19.58 61.28 16.994 62.97 16.87 3.55-.25 6.22-3.33 5.97-6.855-.263-3.542-3.34-6.16-6.87-5.97z"/></svg>