<svg xmlns="http://www.w3.org/2000/svg" width="486.227" height="486.226" viewBox="0 0 486.227 486.226" fill="#FFF"><path d="M438.086 30.3L108.224.035c-2.574-.225-5.066.618-6.948 2.338-.715.647-1.265 1.428-1.738 2.252-.086.065-.18.11-.266.175L44.295 50.184c-2.784 2.3-4.4 5.72-4.4 9.333V474.12c0 6.685 5.423 12.105 12.105 12.105 6.683 0 12.105-5.42 12.105-12.105V116.357l32.562 62.26c.594 1.136 1.356 2.097 2.21 2.945.502 1.42 1.312 2.73 2.456 3.76 1.673 1.5 3.833 2.316 6.06 2.316.333 0 .66-.018.992-.053l164.3-18.087c.39.03.78.12 1.187.12 1.554 0 3.025-.3 4.438-.738l71.697-7.897c1.16.29 2.358.482 3.612.482 2.402 0 4.65-.615 6.67-1.614l77.95-8.58c4.605-.51 8.087-4.4 8.087-9.025v-102.9c0-4.69-3.57-8.613-8.244-9.044zM64.504 64.89l33.804-27.91v92.55L64.504 64.89zm117.06 96.375l-63.118 6.942c-.115-.267-.19-.544-.328-.81l-1.646-3.157V21.628c.606-.77 1.073-1.605 1.472-2.465L182.71 25.1c-1.514 2.356-2.413 5.146-2.413 8.15v121.97c-.006 2.155.454 4.188 1.267 6.047zm77.176-125.33V152.77l-48.47 5.337c.183-.934.29-1.894.29-2.88V33.247c0-2.016-.412-3.93-1.124-5.692l49.85 4.578c-.326 1.22-.545 2.473-.545 3.8zm79.75 7.444v100.6l-49.486 5.445V35.935c0-.375-.088-.72-.112-1.085l50.183 4.607c-.344 1.26-.586 2.554-.586 3.922zm89.683 90.73l-59.42 6.54V43.38c0-.412-.09-.805-.125-1.22l59.545 5.47v86.48z"/></svg>